<svg width="18" height="18" viewBox="0 0 18 18" fill="none" xmlns="http://www.w3.org/2000/svg">
<path fill-rule="evenodd" clip-rule="evenodd" d="M6.86286 6.48048H9.95012V8.01829C10.3948 7.13384 11.5353 6.33917 13.2485 6.33917C16.5328 6.33917 17.3125 8.09976 17.3125 11.33V17.3125H13.9875V12.0656C13.9875 10.2261 13.5428 9.18869 12.4106 9.18869C10.8404 9.18869 10.1879 10.3067 10.1879 12.0648V17.3125H6.86286V6.48048ZM1.16131 17.1712H4.48631V6.33917H1.16131V17.1712ZM4.96262 2.80719C4.96274 3.08588 4.90747 3.36183 4.80001 3.61898C4.69256 3.87612 4.53507 4.10935 4.33669 4.3051C3.93469 4.70462 3.39057 4.92825 2.82381 4.92687C2.25805 4.92649 1.71518 4.70343 1.3126 4.30593C1.11494 4.10952 0.957977 3.87603 0.850711 3.61885C0.743444 3.36166 0.687981 3.08584 0.6875 2.80719C0.6875 2.24443 0.911937 1.70578 1.31343 1.30844C1.71566 0.910407 2.25876 0.687251 2.82464 0.6875C3.39156 0.6875 3.93519 0.911106 4.33669 1.30844C4.73735 1.70578 4.96262 2.24443 4.96262 2.80719Z" fill="#0072B1"/>
</svg>
