<svg width="172" height="37" viewBox="0 0 172 37" fill="none" xmlns="http://www.w3.org/2000/svg">
<path fill-rule="evenodd" clip-rule="evenodd" d="M170.778 35.0625C170.778 36.1325 170.045 37 169.141 37H147.319C145.21 37 143.5 34.976 143.5 32.4792V5.35421C143.5 2.85738 145.21 0.833374 147.319 0.833374H170.232C170.533 0.833374 170.778 1.12256 170.778 1.47921V35.0625ZM144.591 5.35421C144.591 3.57067 145.812 2.12504 147.319 2.12504H169.687V3.41671H147.319C147.018 3.41671 146.773 3.70589 146.773 4.06254C146.773 4.41919 147.018 4.70837 147.319 4.70837H169.687V6.00004H147.319C147.018 6.00004 146.773 6.28923 146.773 6.64587C146.773 7.00252 147.018 7.29171 147.319 7.29171H169.687V8.58337H147.319C145.812 8.58337 144.591 7.13774 144.591 5.35421ZM144.591 8.5182C145.284 9.3555 146.25 9.87504 147.319 9.87504H169.687V35.0625C169.687 35.4192 169.442 35.7084 169.141 35.7084H147.319C145.812 35.7084 144.591 34.2627 144.591 32.4792V8.5182Z" fill="#0077CC"/>
<rect x="142.5" y="12" width="8" height="20" fill="#F5F7F9"/>
<path d="M0 12.7352V9.99414H14.4018V12.7352H8.82262V28.0448H5.57914V12.7352H0Z" fill="#1C2642"/>
<path d="M19.8262 28.3092C18.4689 28.3092 17.2967 28.0272 16.3095 27.4631C15.3282 26.8931 14.5732 26.0882 14.0444 25.0481C13.5155 24.0022 13.2511 22.7712 13.2511 21.3551C13.2511 19.9626 13.5155 18.7404 14.0444 17.6886C14.5791 16.6309 15.3253 15.8083 16.2831 15.2207C17.2408 14.6273 18.3661 14.3305 19.6588 14.3305C20.4931 14.3305 21.2805 14.4657 22.0209 14.736C22.7671 15.0004 23.4252 15.4117 23.9951 15.9699C24.571 16.5281 25.0234 17.2391 25.3525 18.1028C25.6815 18.9607 25.846 19.9831 25.846 21.17V22.1484H14.7495V19.9978H22.7877C22.7818 19.3867 22.6496 18.8432 22.391 18.3673C22.1325 17.8854 21.7711 17.5064 21.3069 17.2303C20.8486 16.9541 20.3139 16.816 19.7028 16.816C19.0506 16.816 18.4777 16.9747 17.9841 17.292C17.4906 17.6034 17.1057 18.0147 16.8295 18.5259C16.5592 19.0312 16.4212 19.5865 16.4153 20.1917V22.0691C16.4153 22.8564 16.5592 23.5322 16.8472 24.0962C17.1351 24.6544 17.5376 25.0834 18.0546 25.383C18.5717 25.6768 19.1769 25.8237 19.8703 25.8237C20.3345 25.8237 20.7546 25.7591 21.1307 25.6298C21.5067 25.4947 21.8328 25.2978 22.109 25.0393C22.3852 24.7808 22.5938 24.4605 22.7348 24.0786L25.7138 24.4135C25.5258 25.2009 25.1674 25.8884 24.6386 26.476C24.1156 27.0577 23.4458 27.5101 22.629 27.8333C21.8123 28.1506 20.878 28.3092 19.8262 28.3092Z" fill="#1C2642"/>
<path d="M33.2095 28.3092C31.8581 28.3092 30.6976 28.0125 29.7281 27.419C28.7644 26.8256 28.0211 26.0059 27.4982 24.96C26.9811 23.9082 26.7226 22.6978 26.7226 21.3287C26.7226 19.9537 26.987 18.7404 27.5158 17.6886C28.0447 16.6309 28.7909 15.8083 29.7545 15.2207C30.7241 14.6273 31.8698 14.3305 33.1919 14.3305C34.2907 14.3305 35.2632 14.5333 36.1093 14.9387C36.9613 15.3382 37.6399 15.9053 38.1453 16.6398C38.6506 17.3684 38.9385 18.2204 39.009 19.1958H35.9594C35.8361 18.5435 35.5423 18 35.0781 17.5652C34.6198 17.1245 34.0057 16.9042 33.236 16.9042C32.5838 16.9042 32.0109 17.0804 31.5173 17.433C31.0237 17.7797 30.6389 18.2791 30.3627 18.9313C30.0924 19.5836 29.9572 20.3651 29.9572 21.2758C29.9572 22.1983 30.0924 22.9916 30.3627 23.6555C30.633 24.3136 31.012 24.8219 31.4997 25.1803C31.9932 25.5329 32.572 25.7092 33.236 25.7092C33.7061 25.7092 34.1262 25.621 34.4964 25.4447C34.8724 25.2626 35.1868 25.0011 35.4394 24.6603C35.6921 24.3195 35.8654 23.9053 35.9594 23.4176H39.009C38.9326 24.3753 38.6506 25.2244 38.1629 25.9648C37.6752 26.6992 37.0112 27.2751 36.171 27.6923C35.3307 28.1036 34.3436 28.3092 33.2095 28.3092Z" fill="#1C2642"/>
<path d="M43.5785 20.1124V28.0448H40.388V9.99414H43.508V16.8072H43.6667C43.984 16.0434 44.4746 15.4411 45.1386 15.0004C45.8084 14.5538 46.6604 14.3305 47.6946 14.3305C48.6347 14.3305 49.4544 14.5274 50.1536 14.9211C50.8529 15.3147 51.3935 15.8906 51.7754 16.6486C52.1632 17.4066 52.3571 18.332 52.3571 19.4249V28.0448H49.1665V19.9185C49.1665 19.0077 48.9315 18.2997 48.4614 17.7944C47.9972 17.2832 47.345 17.0276 46.5047 17.0276C45.9406 17.0276 45.4353 17.151 44.9888 17.3977C44.5481 17.6387 44.2014 17.9883 43.9487 18.4466C43.7019 18.9049 43.5785 19.4602 43.5785 20.1124Z" fill="#1C2642"/>
<path d="M60.4098 28.1418H54.293V10.0911H60.5331C62.3253 10.0911 63.8648 10.4524 65.1516 11.1752C66.4443 11.892 67.4373 12.9232 68.1306 14.2688C68.824 15.6144 69.1707 17.2244 69.1707 19.0988C69.1707 20.9791 68.8211 22.5949 68.1218 23.9464C67.4285 25.2978 66.4266 26.3349 65.1163 27.0577C63.8119 27.7804 62.243 28.1418 60.4098 28.1418ZM57.5629 25.3125H60.2511C61.5085 25.3125 62.5574 25.0834 63.3976 24.625C64.2379 24.1608 64.8695 23.4704 65.2926 22.5538C65.7157 21.6313 65.9272 20.4796 65.9272 19.0988C65.9272 17.718 65.7157 16.5722 65.2926 15.6614C64.8695 14.7448 64.2438 14.0602 63.4153 13.6078C62.5926 13.1495 61.5702 12.9203 60.3481 12.9203H57.5629V25.3125Z" fill="#0077CC"/>
<path d="M70.8955 28.1418V14.6037H74.0861V28.1418H70.8955ZM72.4997 12.6823C71.9943 12.6823 71.5595 12.5149 71.1952 12.1799C70.8309 11.8391 70.6488 11.4308 70.6488 10.9548C70.6488 10.473 70.8309 10.0646 71.1952 9.72971C71.5595 9.38891 71.9943 9.21851 72.4997 9.21851C73.0109 9.21851 73.4457 9.38891 73.8041 9.72971C74.1684 10.0646 74.3506 10.473 74.3506 10.9548C74.3506 11.4308 74.1684 11.8391 73.8041 12.1799C73.4457 12.5149 73.0109 12.6823 72.4997 12.6823Z" fill="#0077CC"/>
<path d="M82.0313 28.4062C80.6799 28.4062 79.5194 28.1094 78.5499 27.516C77.5862 26.9225 76.8429 26.1028 76.32 25.0569C75.8029 24.0051 75.5444 22.7947 75.5444 21.4256C75.5444 20.0507 75.8088 18.8373 76.3376 17.7855C76.8665 16.7279 77.6127 15.9052 78.5763 15.3177C79.5459 14.7242 80.6916 14.4275 82.0137 14.4275C83.1125 14.4275 84.085 14.6302 84.9311 15.0356C85.7831 15.4352 86.4618 16.0022 86.9671 16.7367C87.4724 17.4653 87.7603 18.3173 87.8308 19.2927H84.7813C84.6579 18.6405 84.3641 18.0969 83.8999 17.6621C83.4416 17.2214 82.8275 17.0011 82.0578 17.0011C81.4056 17.0011 80.8327 17.1774 80.3391 17.5299C79.8455 17.8766 79.4606 18.3761 79.1845 19.0283C78.9142 19.6805 78.779 20.462 78.779 21.3727C78.779 22.2953 78.9142 23.0885 79.1845 23.7525C79.4548 24.4106 79.8338 24.9188 80.3215 25.2773C80.815 25.6298 81.3938 25.8061 82.0578 25.8061C82.5279 25.8061 82.948 25.718 83.3182 25.5417C83.6942 25.3595 84.0086 25.0981 84.2612 24.7572C84.5139 24.4164 84.6872 24.0022 84.7813 23.5145H87.8308C87.7544 24.4723 87.4724 25.3213 86.9847 26.0617C86.497 26.7962 85.833 27.372 84.9928 27.7892C84.1525 28.2005 83.1654 28.4062 82.0313 28.4062Z" fill="#0077CC"/>
<path d="M95.9699 14.6037V17.0716H88.1873V14.6037H95.9699ZM90.1088 11.3603H93.2994V24.0698C93.2994 24.4987 93.364 24.8278 93.4933 25.0569C93.6284 25.2802 93.8047 25.433 94.0221 25.5152C94.2395 25.5975 94.4804 25.6386 94.7448 25.6386C94.9446 25.6386 95.1268 25.6239 95.2913 25.5946C95.4617 25.5652 95.591 25.5387 95.6791 25.5152L96.2167 28.0095C96.0463 28.0683 95.8025 28.1329 95.4852 28.2034C95.1738 28.274 94.7918 28.3151 94.3394 28.3268C93.5403 28.3503 92.8205 28.2299 92.18 27.9655C91.5395 27.6952 91.0313 27.278 90.6552 26.7139C90.285 26.1498 90.1029 25.4447 90.1088 24.5986V11.3603Z" fill="#0077CC"/>
<path d="M97.3973 28.1418V14.6037H100.588V28.1418H97.3973ZM99.0014 12.6823C98.4961 12.6823 98.0613 12.5149 97.697 12.1799C97.3327 11.8391 97.1506 11.4308 97.1506 10.9548C97.1506 10.473 97.3327 10.0646 97.697 9.72971C98.0613 9.38891 98.4961 9.21851 99.0014 9.21851C99.5126 9.21851 99.9475 9.38891 100.306 9.72971C100.67 10.0646 100.852 10.473 100.852 10.9548C100.852 11.4308 100.67 11.8391 100.306 12.1799C99.9475 12.5149 99.5126 12.6823 99.0014 12.6823Z" fill="#0077CC"/>
<path d="M108.533 28.4062C107.211 28.4062 106.065 28.1153 105.096 27.5336C104.126 26.9519 103.374 26.1381 102.839 25.0922C102.311 24.0463 102.046 22.8241 102.046 21.4256C102.046 20.0272 102.311 18.8021 102.839 17.7503C103.374 16.6985 104.126 15.8817 105.096 15.3C106.065 14.7183 107.211 14.4275 108.533 14.4275C109.855 14.4275 111.001 14.7183 111.971 15.3C112.94 15.8817 113.689 16.6985 114.218 17.7503C114.753 18.8021 115.02 20.0272 115.02 21.4256C115.02 22.8241 114.753 24.0463 114.218 25.0922C113.689 26.1381 112.94 26.9519 111.971 27.5336C111.001 28.1153 109.855 28.4062 108.533 28.4062ZM108.551 25.8502C109.268 25.8502 109.867 25.6533 110.349 25.2596C110.831 24.8601 111.189 24.3254 111.424 23.6555C111.665 22.9857 111.785 22.2394 111.785 21.4168C111.785 20.5883 111.665 19.8391 111.424 19.1693C111.189 18.4936 110.831 17.9559 110.349 17.5564C109.867 17.1568 109.268 16.957 108.551 16.957C107.816 16.957 107.205 17.1568 106.717 17.5564C106.236 17.9559 105.874 18.4936 105.633 19.1693C105.398 19.8391 105.281 20.5883 105.281 21.4168C105.281 22.2394 105.398 22.9857 105.633 23.6555C105.874 24.3254 106.236 24.8601 106.717 25.2596C107.205 25.6533 107.816 25.8502 108.551 25.8502Z" fill="#0077CC"/>
<path d="M119.678 20.2093V28.1418H116.487V14.6037H119.537V16.9041H119.695C120.007 16.1462 120.503 15.5439 121.185 15.0973C121.872 14.6508 122.721 14.4275 123.732 14.4275C124.666 14.4275 125.48 14.6272 126.174 15.0268C126.873 15.4264 127.413 16.0051 127.795 16.7631C128.183 17.5211 128.374 18.4407 128.368 19.5218V28.1418H125.178V20.0154C125.178 19.1105 124.943 18.4025 124.472 17.8913C124.008 17.3801 123.365 17.1245 122.542 17.1245C121.984 17.1245 121.488 17.2479 121.053 17.4947C120.624 17.7356 120.286 18.0852 120.039 18.5435C119.798 19.0018 119.678 19.5571 119.678 20.2093Z" fill="#0077CC"/>
<path d="M134.266 28.415C133.409 28.415 132.636 28.2622 131.948 27.9567C131.267 27.6452 130.726 27.1869 130.327 26.5817C129.933 25.9765 129.736 25.2303 129.736 24.343C129.736 23.5791 129.877 22.9475 130.159 22.448C130.441 21.9486 130.826 21.549 131.314 21.2494C131.801 20.9497 132.351 20.7235 132.962 20.5707C133.579 20.412 134.216 20.2975 134.875 20.227C135.668 20.1447 136.311 20.0712 136.805 20.0066C137.298 19.9361 137.657 19.8303 137.88 19.6893C138.109 19.5424 138.224 19.3162 138.224 19.0106V18.9578C138.224 18.2938 138.027 17.7797 137.633 17.4153C137.24 17.051 136.673 16.8689 135.932 16.8689C135.151 16.8689 134.531 17.0393 134.072 17.3801C133.62 17.7209 133.314 18.1234 133.156 18.5876L130.177 18.1645C130.412 17.3419 130.8 16.6544 131.34 16.1021C131.881 15.5439 132.542 15.1267 133.323 14.8505C134.105 14.5685 134.969 14.4275 135.915 14.4275C136.567 14.4275 137.216 14.5039 137.862 14.6566C138.509 14.8094 139.099 15.0621 139.634 15.4146C140.169 15.7613 140.598 16.2343 140.921 16.8336C141.25 17.433 141.414 18.1821 141.414 19.0812V28.1418H138.347V26.282H138.241C138.048 26.6581 137.774 27.0106 137.422 27.3397C137.075 27.6629 136.637 27.9243 136.108 28.1241C135.586 28.318 134.971 28.415 134.266 28.415ZM135.095 26.0705C135.735 26.0705 136.291 25.9442 136.761 25.6915C137.231 25.433 137.592 25.0922 137.845 24.6691C138.103 24.246 138.233 23.7848 138.233 23.2853V21.69C138.133 21.7723 137.962 21.8487 137.721 21.9192C137.486 21.9897 137.222 22.0514 136.928 22.1043C136.634 22.1572 136.343 22.2042 136.056 22.2453C135.768 22.2864 135.518 22.3217 135.306 22.3511C134.83 22.4157 134.404 22.5215 134.028 22.6684C133.652 22.8153 133.356 23.0209 133.138 23.2853C132.921 23.5439 132.812 23.8788 132.812 24.2901C132.812 24.8777 133.027 25.3213 133.456 25.621C133.884 25.9207 134.431 26.0705 135.095 26.0705Z" fill="#0077CC"/>
<path d="M143.382 28.1418V14.6037H146.475V16.8601H146.616C146.863 16.0786 147.286 15.4763 147.885 15.0532C148.491 14.6243 149.181 14.4098 149.957 14.4098C150.133 14.4098 150.33 14.4187 150.547 14.4363C150.771 14.448 150.956 14.4686 151.103 14.498V17.433C150.967 17.386 150.753 17.3448 150.459 17.3096C150.171 17.2685 149.892 17.2479 149.622 17.2479C149.04 17.2479 148.517 17.3742 148.053 17.6269C147.595 17.8737 147.233 18.2174 146.969 18.6581C146.704 19.0988 146.572 19.607 146.572 20.1829V28.1418H143.382Z" fill="#0077CC"/>
<path d="M154.376 33.2185C153.942 33.2185 153.539 33.1833 153.169 33.1127C152.805 33.0481 152.514 32.9717 152.296 32.8836L153.037 30.3981C153.501 30.5332 153.915 30.5979 154.279 30.592C154.644 30.5861 154.964 30.4715 155.24 30.2483C155.522 30.0308 155.76 29.6665 155.954 29.1553L156.227 28.4238L151.318 14.6037H154.703L157.823 24.8278H157.964L161.093 14.6037H164.486L159.065 29.7811C158.813 30.498 158.478 31.112 158.061 31.6232C157.643 32.1403 157.132 32.534 156.527 32.8043C155.928 33.0804 155.211 33.2185 154.376 33.2185Z" fill="#0077CC"/>
</svg>
