<svg width="25" height="25" xmlns="http://www.w3.org/2000/svg"><g fill="none" fill-rule="evenodd"><circle fill="#0070E0" fill-rule="nonzero" cx="12.5" cy="12.5" r="12.5"/><path d="M4 12.553C4 7.832 7.823 4 12.544 4c4.73 0 8.561 3.832 8.561 8.553 0 4.72-3.831 8.552-8.561 8.552C7.823 21.105 4 17.274 4 12.553zm11.948-3.421h2.523a6.868 6.868 0 00-3.703-3.045c.513.95.906 1.976 1.18 3.045zm-3.396-3.387a12.045 12.045 0 011.633 3.387h-3.267a12.049 12.049 0 011.634-3.387zM5.71 12.553c0 .59.086 1.163.223 1.71h2.89a14.127 14.127 0 01-.12-1.71c0-.582.052-1.146.12-1.71h-2.89a7.05 7.05 0 00-.223 1.71zm.925 3.42h2.523a13.385 13.385 0 001.18 3.045 6.831 6.831 0 01-3.703-3.044zm0-6.841h2.523a13.384 13.384 0 011.18-3.045 6.831 6.831 0 00-3.703 3.045zm5.917 10.229a12.048 12.048 0 01-1.634-3.387h3.267a12.045 12.045 0 01-1.633 3.387zm-2-5.098h4.002c.077-.564.137-1.129.137-1.71 0-.582-.06-1.155-.137-1.71H10.55a12.469 12.469 0 00-.137 1.71c0 .581.06 1.146.137 1.71zm4.216 4.755a13.39 13.39 0 001.18-3.044h2.523a6.868 6.868 0 01-3.703 3.044zm1.633-6.465c0 .581-.051 1.146-.12 1.71h2.891c.137-.547.223-1.12.223-1.71a7.03 7.03 0 00-.223-1.71h-2.89c.068.564.12 1.128.12 1.71z" fill="#FFF"/></g></svg>