<svg width="20" height="20" viewBox="0 0 20 20" fill="none" xmlns="http://www.w3.org/2000/svg">
<path d="M19.5826 5.18973C19.4687 4.76571 19.2455 4.37903 18.9353 4.06838C18.625 3.75774 18.2386 3.53403 17.8147 3.41964C16.2545 3 10 3 10 3C10 3 3.74554 3 2.18527 3.41741C1.76121 3.53143 1.37461 3.75501 1.0643 4.06571C0.753989 4.37642 0.530891 4.76329 0.417411 5.1875C-8.51495e-08 6.75 0 10.0089 0 10.0089C0 10.0089 -8.51495e-08 13.2679 0.417411 14.8281C0.647321 15.6897 1.32589 16.3683 2.18527 16.5982C3.74554 17.0179 10 17.0179 10 17.0179C10 17.0179 16.2545 17.0179 17.8147 16.5982C18.6763 16.3683 19.3527 15.6897 19.5826 14.8281C20 13.2679 20 10.0089 20 10.0089C20 10.0089 20 6.75 19.5826 5.18973ZM8.01339 13V7.01786L13.192 9.98661L8.01339 13Z" fill="#616161"/>
</svg>
